<?xml version="1.0" encoding="UTF-8"?>
<svg width="20" height="20" viewBox="0 0 20 20" xmlns="http://www.w3.org/2000/svg" xmlns:xlink="http://www.w3.org/1999/xlink">
    <title>icon/ic-bell</title>
    <defs>
        <path d="M14.167 10.833V6.667a5 5 0 0 0-10 0v4.166c0 .607-.163 1.177-.446 1.667h10.892a3.318 3.318 0 0 1-.446-1.667zm3.333 3.334H.833c-1.11 0-1.11-1.667 0-1.667.92 0 1.667-.746 1.667-1.667V6.667a6.667 6.667 0 0 1 13.333 0v4.166c0 .92.747 1.667 1.667 1.667 1.111 0 1.111 1.667 0 1.667zm-6.17 2.918a2.5 2.5 0 0 1-4.326 0 .833.833 0 0 1 .721-1.252h2.883a.833.833 0 0 1 .721 1.252z" id="j41rmxil6a"/>
    </defs>
    <g transform="translate(.833 .833)" fill="none" fill-rule="evenodd">
        <mask id="mkepaarhob" fill="#000000">
            <use xlink:href="#j41rmxil6a"/>
        </mask>
        <use fill="#000000" fill-rule="nonzero" xlink:href="#j41rmxil6a"/>
        <g mask="url(#mkepaarhob)" fill="#000000">
            <path d="M-.833-.833h20v20h-20z"/>
        </g>
    </g>
</svg>
