<?xml version="1.0" encoding="UTF-8"?>
<svg width="18" height="18" viewBox="0 0 18 18" xmlns="http://www.w3.org/2000/svg" xmlns:xlink="http://www.w3.org/1999/xlink">
    <title>icon/ic-circle-cancel</title>
    <defs>
        <path d="M9 .75a8.25 8.25 0 1 1 0 16.5A8.25 8.25 0 0 1 9 .75zm0 1.5a6.75 6.75 0 1 0 0 13.5 6.75 6.75 0 0 0 0-13.5zM6.22 6.22a.75.75 0 0 1 1.06 0L9 7.939l1.72-1.72a.75.75 0 0 1 .976-.072l.084.073a.75.75 0 0 1 0 1.06L10.061 9l1.72 1.72a.75.75 0 0 1 .072.976l-.073.084a.75.75 0 0 1-1.06 0L9 10.061l-1.72 1.72a.75.75 0 0 1-.976.072l-.084-.073a.75.75 0 0 1 0-1.06L7.939 9l-1.72-1.72a.75.75 0 0 1-.072-.976z" id="xbqr5bacna"/>
    </defs>
    <g fill="none" fill-rule="evenodd">
        <mask id="svi2l73lib" fill="#000000">
            <use xlink:href="#xbqr5bacna"/>
        </mask>
        <use fill="#000000" fill-rule="nonzero" xlink:href="#xbqr5bacna"/>
        <g mask="url(#svi2l73lib)" fill="#000000">
            <path d="M0 0h18v18H0z"/>
        </g>
    </g>
</svg>
