<?xml version="1.0" encoding="UTF-8"?>
<svg width="18" height="18" viewBox="0 0 18 18" xmlns="http://www.w3.org/2000/svg" xmlns:xlink="http://www.w3.org/1999/xlink">
    <title>icon/ic-clock-done</title>
    <defs>
        <path d="M18 7.5v2.25c0 .896-.393 1.7-1.016 2.25.575.507.954 1.231 1.01 2.045l.006.205v2.25h-6v-1.916A7.875 7.875 0 1 1 15.74 7.5h2.26zM16.5 9h-3v.75c0 .79.612 1.439 1.356 1.496l.107.004.113-.002a1.5 1.5 0 0 0 1.42-1.385l.004-.113V9zM7.875 3a.75.75 0 0 1 .743.648l.007.102v4.19l2.03 2.03a.75.75 0 0 1-.976 1.133l-.084-.073-2.25-2.25a.75.75 0 0 1-.21-.412l-.01-.118v-4.5a.75.75 0 0 1 .75-.75zm0-1.5a6.375 6.375 0 1 0 4.984 10.35A2.983 2.983 0 0 1 12 9.75V7.5h2.24a6.375 6.375 0 0 0-6.365-6z" id="9nn06v765a"/>
    </defs>
    <g transform="translate(0 .75)" fill="none" fill-rule="evenodd">
        <mask id="uxy9xpyndb" fill="#000000">
            <use xlink:href="#9nn06v765a"/>
        </mask>
        <use fill="#000000" fill-rule="nonzero" xlink:href="#9nn06v765a"/>
        <g mask="url(#uxy9xpyndb)" fill="#000000">
            <path d="M0-.75h18v18H0z"/>
        </g>
    </g>
</svg>
