<?xml version="1.0" encoding="UTF-8"?>
<svg width="18" height="18" viewBox="0 0 18 18" xmlns="http://www.w3.org/2000/svg" xmlns:xlink="http://www.w3.org/1999/xlink">
    <title>icon/ic-calendar-n</title>
    <defs>
        <path d="M12 .75a.75.75 0 0 1 .743.648l.007.102v.75h1.5A2.25 2.25 0 0 1 16.5 4.5V15a2.25 2.25 0 0 1-2.25 2.25H3.75A2.25 2.25 0 0 1 1.5 15V4.5a2.25 2.25 0 0 1 2.25-2.25h1.5V1.5a.75.75 0 0 1 .648-.743L6 .75a.75.75 0 0 1 .743.648l.007.102v.75h4.5V1.5a.75.75 0 0 1 .648-.743L12 .75zm3 7.5H3V15c0 .414.336.75.75.75h10.5A.75.75 0 0 0 15 15V8.25zm-3.75 3a.75.75 0 1 1 0 1.5h-4.5a.75.75 0 1 1 0-1.5h4.5zm-6-7.5h-1.5A.75.75 0 0 0 3 4.5v2.25h12V4.5a.75.75 0 0 0-.75-.75h-1.5v.75a.75.75 0 0 1-.648.743L12 5.25a.75.75 0 0 1-.743-.648L11.25 4.5v-.75h-4.5v.75a.75.75 0 0 1-.648.743L6 5.25a.75.75 0 0 1-.743-.648L5.25 4.5v-.75z" id="77x56qud4a"/>
    </defs>
    <g fill="none" fill-rule="evenodd">
        <mask id="eu6fkdfojb" fill="#fff">
            <use xlink:href="#77x56qud4a"/>
        </mask>
        <use fill="#000" fill-rule="nonzero" xlink:href="#77x56qud4a"/>
        <g mask="url(#eu6fkdfojb)" fill="#282C34">
            <path d="M0 0h18v18H0z"/>
        </g>
        <g mask="url(#eu6fkdfojb)" fill="#00B3A8">
            <path d="M4.5 9h9v6h-9z"/>
        </g>
    </g>
</svg>
