<?xml version="1.0" encoding="UTF-8"?>
<svg width="20" height="20" viewBox="0 0 20 20" xmlns="http://www.w3.org/2000/svg" xmlns:xlink="http://www.w3.org/1999/xlink">
    <title>icon/ic-eye-off</title>
    <defs>
        <path d="M18.923 17.744a.833.833 0 0 1-1.179 1.179l-2.889-2.89A9.24 9.24 0 0 1 10 17.5c-2.817 0-5.282-1.36-7.379-3.597a17.077 17.077 0 0 1-1.876-2.41c-.32-.495-.54-.886-.657-1.12a.833.833 0 0 1 .011-.767 16.208 16.208 0 0 1 3.709-4.62l-2.73-2.73a.833.833 0 1 1 1.178-1.179L5.63 4.452a.84.84 0 0 1 .081.092l-.069-.079 3.192 3.191zM4.99 6.167a14.542 14.542 0 0 0-3.205 3.836 15.427 15.427 0 0 0 2.052 2.76c1.81 1.93 3.875 3.07 6.15 3.07a7.558 7.558 0 0 0 3.655-1.011l-1.934-1.935a3.334 3.334 0 0 1-4.594-4.596zM10 2.5c2.817 0 5.282 1.36 7.379 3.597.72.768 1.346 1.588 1.876 2.41.32.495.54.886.657 1.12a.833.833 0 0 1-.01.766 16.25 16.25 0 0 1-1.898 2.802.833.833 0 0 1-1.275-1.073 14.583 14.583 0 0 0 1.486-2.124 15.427 15.427 0 0 0-2.052-2.762c-1.81-1.93-3.875-3.07-6.165-3.07a6.767 6.767 0 0 0-1.558.179.833.833 0 0 1-.38-1.623A8.43 8.43 0 0 1 10 2.5zM8.356 9.536a1.666 1.666 0 0 0 2.108 2.108z" id="eb8pg71xma"/>
    </defs>
    <g fill="none" fill-rule="evenodd">
        <mask id="5aw2sf7d9b" fill="#000000">
            <use xlink:href="#eb8pg71xma"/>
        </mask>
        <use fill="#000000" xlink:href="#eb8pg71xma"/>
        <g mask="url(#5aw2sf7d9b)" fill="#000000">
            <path d="M0 0h20v20H0z"/>
        </g>
    </g>
</svg>
