<?xml version="1.0" encoding="UTF-8"?>
<svg width="20" height="20" viewBox="0 0 20 20" xmlns="http://www.w3.org/2000/svg" xmlns:xlink="http://www.w3.org/1999/xlink">
    <title>icon/ic-eye-on</title>
    <defs>
        <path d="M10 2.5c2.817 0 5.282 1.36 7.379 3.597.72.768 1.346 1.588 1.876 2.41.32.495.54.886.657 1.12a.833.833 0 0 1 0 .746c-.117.234-.337.625-.657 1.12-.53.822-1.156 1.642-1.876 2.41C15.282 16.14 12.817 17.5 10 17.5c-2.817 0-5.282-1.36-7.379-3.597a17.077 17.077 0 0 1-1.876-2.41c-.32-.495-.54-.886-.657-1.12a.833.833 0 0 1 0-.746c.117-.234.337-.625.657-1.12.53-.822 1.156-1.642 1.876-2.41C4.718 3.86 7.183 2.5 10 2.5zm0 1.667c-2.288 0-4.353 1.14-6.163 3.07A15.427 15.427 0 0 0 1.784 10a15.427 15.427 0 0 0 2.053 2.763c1.81 1.93 3.875 3.07 6.163 3.07 2.288 0 4.353-1.14 6.163-3.07A15.427 15.427 0 0 0 18.216 10a15.427 15.427 0 0 0-2.053-2.763c-1.81-1.93-3.875-3.07-6.163-3.07zm0 2.5a3.333 3.333 0 1 1 0 6.666 3.333 3.333 0 0 1 0-6.666zm0 1.666a1.667 1.667 0 1 0 0 3.334 1.667 1.667 0 0 0 0-3.334z" id="vg604wz62a"/>
    </defs>
    <g fill="none" fill-rule="evenodd">
        <mask id="s3476wrnib" fill="#000000">
            <use xlink:href="#vg604wz62a"/>
        </mask>
        <use fill="#000000" fill-rule="nonzero" xlink:href="#vg604wz62a"/>
        <g mask="url(#s3476wrnib)" fill="#000000">
            <path d="M0 0h20v20H0z"/>
        </g>
    </g>
</svg>
