<?xml version="1.0" encoding="UTF-8"?>
<svg width="16" height="16" viewBox="0 0 16 16" xmlns="http://www.w3.org/2000/svg" xmlns:xlink="http://www.w3.org/1999/xlink">
    <title>icon/ic-help</title>
    <defs>
        <path d="M8 .667a7.333 7.333 0 1 1 0 14.666A7.333 7.333 0 0 1 8 .667zM8 2a6 6 0 1 0 0 12A6 6 0 0 0 8 2zm0 9a.667.667 0 1 1 0 1.333A.667.667 0 0 1 8 11zm0-7.26c1.55 0 2.467 1.113 2.467 2.457 0 .886-.306 1.369-1.027 1.96l-.173.138c-.476.374-.614.545-.632.876l-.002.08v.569a.633.633 0 0 1-1.262.074l-.004-.074v-.57c0-.83.292-1.279.99-1.85l.168-.134c.54-.424.676-.616.676-1.07 0-.692-.411-1.19-1.201-1.19-.73 0-1.3.506-1.356.923l-.004.065a.633.633 0 1 1-1.267 0C5.373 4.852 6.546 3.74 8 3.74z" id="rda43hptca"/>
    </defs>
    <g fill="none" fill-rule="evenodd">
        <mask id="jvcdu03r0b" fill="#000000">
            <use xlink:href="#rda43hptca"/>
        </mask>
        <use fill="#000000" fill-rule="nonzero" xlink:href="#rda43hptca"/>
        <g mask="url(#jvcdu03r0b)" fill="#000000">
            <path d="M0 0h16v16H0z"/>
        </g>
    </g>
</svg>
