<?xml version="1.0" encoding="UTF-8"?>
<svg width="18" height="18" viewBox="0 0 18 18" xmlns="http://www.w3.org/2000/svg" xmlns:xlink="http://www.w3.org/1999/xlink">
    <title>icon/ic-list-filter</title>
    <defs>
        <path d="M10.5 12.75a.75.75 0 0 0-.75-.75h-1.5a.75.75 0 0 0 0 1.5h1.5a.75.75 0 0 0 .75-.75zM3 6h12a.75.75 0 1 0 0-1.5H3A.75.75 0 0 0 3 6zm10.5 3a.75.75 0 0 0-.75-.75h-7.5a.75.75 0 1 0 0 1.5h7.5A.75.75 0 0 0 13.5 9z" id="46yd4rtcka"/>
    </defs>
    <g fill="none" fill-rule="evenodd">
        <mask id="4n8r0sflwb" fill="#000000">
            <use xlink:href="#46yd4rtcka"/>
        </mask>
        <use fill="#000000" fill-rule="nonzero" xlink:href="#46yd4rtcka"/>
        <g mask="url(#4n8r0sflwb)" fill="#000000">
            <path d="M0 0h18v18H0z"/>
        </g>
    </g>
</svg>
