<?xml version="1.0" encoding="UTF-8"?>
<svg width="18" height="18" viewBox="0 0 18 18" xmlns="http://www.w3.org/2000/svg" xmlns:xlink="http://www.w3.org/1999/xlink">
    <title>icon/ic-offer</title>
    <defs>
        <path d="M14.25 3.75A.75.75 0 0 0 13.5 3H12a1.5 1.5 0 0 1-1.5 1.5H6A1.5 1.5 0 0 1 4.5 3H3a.75.75 0 0 0-.75.75v12c0 .414.336.75.75.75h5.25a.75.75 0 1 1 0 1.5H3a2.25 2.25 0 0 1-2.25-2.25v-12A2.25 2.25 0 0 1 3 1.5h1.5A1.5 1.5 0 0 1 6 0h4.5A1.5 1.5 0 0 1 12 1.5h1.5a2.25 2.25 0 0 1 2.25 2.25V7.5a.75.75 0 1 1-1.5 0zM13.5 9a4.5 4.5 0 1 1 0 9 4.5 4.5 0 0 1 0-9zm0 1.5a.75.75 0 0 0-.75.75v2.25l.005.087a.75.75 0 0 0 .745.663h2.25l.087-.005a.75.75 0 0 0 .663-.745l-.005-.087a.75.75 0 0 0-.745-.663h-1.5v-1.5l-.005-.087a.75.75 0 0 0-.745-.663zm-7.37 1.65a.675.675 0 0 1 0 1.35h-.955a.675.675 0 0 1 0-1.35h.956zm1.433-3a.675.675 0 0 1 0 1.35H5.175a.675.675 0 0 1 0-1.35h2.388zm2.262-3a.675.675 0 0 1 0 1.35h-4.65a.675.675 0 1 1 0-1.35h4.65zM10.5 1.5H6V3h4.5V1.5z" id="2z29nqhuqa"/>
    </defs>
    <g fill="none" fill-rule="evenodd">
        <mask id="g7rxh8a08b" fill="#fff">
            <use xlink:href="#2z29nqhuqa"/>
        </mask>
        <use fill="#000" fill-rule="nonzero" xlink:href="#2z29nqhuqa"/>
        <g mask="url(#g7rxh8a08b)" fill="#282C34">
            <path d="M0 0h18v18H0z"/>
        </g>
        <g mask="url(#g7rxh8a08b)" fill="#00B3A8">
            <path d="M9 9h9v9H9z"/>
        </g>
    </g>
</svg>
