<?xml version="1.0" encoding="UTF-8"?>
<svg width="18" height="18" viewBox="0 0 18 18" xmlns="http://www.w3.org/2000/svg" xmlns:xlink="http://www.w3.org/1999/xlink">
    <title>icon/ic-point-2</title>
    <defs>
        <path d="m7.261 1.153.13.12L9 2.883l1.61-1.61a2.25 2.25 0 0 1 3.182 0l1.06 1.06c.206.205.363.44.472.69A2.249 2.249 0 0 1 17.25 5.25v1.5a2.25 2.25 0 0 1-1.505 2.124L15.75 9v6a2.25 2.25 0 0 1-2.25 2.25h-9A2.25 2.25 0 0 1 2.25 15V9c0-.043.001-.086.004-.127A2.251 2.251 0 0 1 .75 6.75v-1.5a2.25 2.25 0 0 1 1.944-2.23l-.018.003a2.23 2.23 0 0 1 .352-.56l.12-.13 1.06-1.06a2.25 2.25 0 0 1 3.053-.12zm3.989 10.995a.724.724 0 0 1-1.125.602l-.848-.565a.5.5 0 0 0-.554 0l-.848.565a.724.724 0 0 1-1.125-.602V9h-3v6c0 .414.336.75.75.75h9a.75.75 0 0 0 .75-.75V9h-3v3.148zM15 4.5H3a.75.75 0 0 0-.75.75v1.5c0 .414.336.75.75.75h12a.75.75 0 0 0 .75-.75v-1.5A.75.75 0 0 0 15 4.5zM5.353 2.26l-.084.073L4.6 3H3h12-1.603l-.666-.667a.75.75 0 0 0-1.06 0L11.002 3H6.996l-.666-.667a.75.75 0 0 0-.977-.072z" id="vn2y9dbo8a"/>
    </defs>
    <g fill="none" fill-rule="evenodd">
        <mask id="9oppowpkzb" fill="#fff">
            <use xlink:href="#vn2y9dbo8a"/>
        </mask>
        <use fill="#979797" fill-rule="nonzero" xlink:href="#vn2y9dbo8a"/>
        <g mask="url(#9oppowpkzb)" fill="#282C34">
            <path d="M0 0h18v18H0z"/>
        </g>
        <g mask="url(#9oppowpkzb)" fill="#00B3A8">
            <path d="M5.25 9h7.5v4.5h-7.5z"/>
        </g>
    </g>
</svg>
