<?xml version="1.0" encoding="UTF-8"?>
<svg width="24px" height="24px" viewBox="0 0 24 24" version="1.1" xmlns="http://www.w3.org/2000/svg" xmlns:xlink="http://www.w3.org/1999/xlink">
    <title>ic/refresh</title>
    <defs>
        <path d="M2.00000303,10.9909074 L1.9479042,10.9895507 C1.93286866,10.9887682 1.91784938,10.9876483 1.90285869,10.9861912 C1.8757398,10.9836137 1.84970726,10.9800331 1.8240139,10.9754714 C1.81035023,10.9729317 1.79663601,10.9701961 1.78297475,10.967172 C1.76377933,10.963054 1.74432708,10.9581323 1.7251111,10.9526502 C1.70562724,10.9469887 1.6864242,10.9408849 1.66738764,10.9341901 C1.55694493,10.8953502 1.45518567,10.8374303 1.36623624,10.7644698 C1.3333905,10.7376308 1.3015053,10.7078823 1.27124996,10.6756839 L1.34982339,10.7507121 C1.32339608,10.7280765 1.29816352,10.704086 1.27423336,10.6788484 C1.26885065,10.6731305 1.26646735,10.6705679 1.26410006,10.6679961 C1.2408009,10.6426991 1.21871286,10.6160875 1.19802819,10.5883674 C1.19147981,10.5796475 1.18523508,10.5709968 1.17914633,10.5622726 C1.16581124,10.5430916 1.15286273,10.5230598 1.14062738,10.5025531 C1.12981951,10.4845286 1.11996064,10.4667543 1.11068681,10.4487632 C1.10315975,10.4340876 1.0957101,10.4187136 1.08864859,10.4031263 C1.07964422,10.3832663 1.07148979,10.3635404 1.06399554,10.3436287 C1.05766334,10.3268591 1.05178785,10.3099024 1.04636256,10.2927456 C1.0405207,10.274138 1.03512755,10.2551132 1.03030989,10.2359776 C1.02510718,10.2155125 1.02068573,10.1952942 1.0168858,10.1748576 C1.01385091,10.1582601 1.01117048,10.141509 1.00891746,10.1247143 C1.00302629,10.0809686 1.00000303,10.0362911 1.00000303,9.99090736 L1.00249346,10.0618824 C1.00108305,10.0418928 1.00027134,10.0218724 1.00005742,10.0018503 L1.00000303,9.99090736 L1.00000303,3.99090736 C1.00000303,3.43862261 1.44771828,2.99090736 2.00000303,2.99090736 C2.55228778,2.99090736 3.00000303,3.43862261 3.00000303,3.99090736 L3.00000303,3.99090736 L3,7.679 L5.93349439,4.92320294 C9.01389308,1.84800911 13.7189916,1.12598703 17.5694265,3.10596934 L17.8366436,3.24849603 C21.7345751,5.40331479 23.7375736,9.8763013 22.7492949,14.2191597 C21.7610163,18.5620181 18.0197068,21.7278063 13.5731779,21.9837254 C9.12664905,22.2396445 5.04683484,19.5239996 3.56682772,15.3232029 C3.38330594,14.8023016 3.65680611,14.2312538 4.17770745,14.0477321 C4.69860878,13.8642103 5.26965655,14.1377104 5.45317833,14.6586118 C6.63718402,18.0192491 9.90103539,20.1917651 13.4582585,19.9870298 C17.0154816,19.7822945 20.0085292,17.2496639 20.7991521,13.7753772 C21.589775,10.3010905 19.9873762,6.72270126 16.869031,4.99884626 C13.7506858,3.27499125 9.86814035,3.82124382 7.32477961,6.35966042 L7.32477961,6.35966042 L4.524,8.99 L8.00000303,8.99090736 C8.51283887,8.99090736 8.93551019,9.37694755 8.99327529,9.87428624 L9.00000303,9.99090736 C9.00000303,10.5431921 8.55228778,10.9909074 8.00000303,10.9909074 L8.00000303,10.9909074 L2.00000303,10.9909074 L2.00000303,10.9909074 Z" id="path-1"></path>
    </defs>
    <g id="Superjoin" stroke="none" stroke-width="1" fill="none" fill-rule="evenodd">
        <g id="0-5-01" transform="translate(-322.000000, -400.000000)">
            <g id="Group-10-Copy-25" transform="translate(322.000000, 400.000000)">
                <g id="Group" transform="translate(-0.000000, 0.000000)">
                    <mask id="mask-2" fill="#000000">
                        <use xlink:href="#path-1"></use>
                    </mask>
                    <use id="Combined-Shape" fill="#000000" fill-rule="nonzero" xlink:href="#path-1"></use>
                    <g mask="url(#mask-2)" fill="#000000" id="COLOR/-black">
                        <g>
                            <rect id="Rectangle" x="0" y="0" width="24" height="24"></rect>
                        </g>
                    </g>
                </g>
            </g>
        </g>
    </g>
</svg>
