<?xml version="1.0" encoding="UTF-8"?>
<svg width="18" height="18" viewBox="0 0 18 18" xmlns="http://www.w3.org/2000/svg" xmlns:xlink="http://www.w3.org/1999/xlink">
    <title>icon/ic-trash</title>
    <defs>
        <path d="M9 0a2.25 2.25 0 0 1 2.25 2.25V3h3a.75.75 0 0 1 .743.648L15 3.75a.75.75 0 0 1-.75.75h-.75v9.75a2.25 2.25 0 0 1-2.096 2.245l-.154.005h-7.5a2.25 2.25 0 0 1-2.25-2.25V4.5H.75a.75.75 0 0 1-.743-.648L0 3.75A.75.75 0 0 1 .75 3h3v-.75A2.25 2.25 0 0 1 5.846.005L6 0zm3 4.5H3v9.75c0 .38.282.693.648.743L3.75 15h7.5a.75.75 0 0 0 .75-.75V4.5zm-3-3H6a.75.75 0 0 0-.75.75V3h4.5v-.75a.75.75 0 0 0-.648-.743L9 1.5z" id="mfp8rn9f0a"/>
    </defs>
    <g transform="translate(1.5 .75)" fill="none" fill-rule="evenodd">
        <mask id="166osobwtb" fill="#000000">
            <use xlink:href="#mfp8rn9f0a"/>
        </mask>
        <use fill="#000000" fill-rule="nonzero" xlink:href="#mfp8rn9f0a"/>
        <g mask="url(#166osobwtb)" fill="#000000">
            <path d="M-1.5-.75h18v18h-18z"/>
        </g>
    </g>
</svg>
