<?xml version="1.0" encoding="UTF-8"?>
<svg width="18" height="18" viewBox="0 0 18 18" xmlns="http://www.w3.org/2000/svg" xmlns:xlink="http://www.w3.org/1999/xlink">
    <title>icon/ic-user-v</title>
    <defs>
        <path d="M9 10.5a3.75 3.75 0 0 1 3.75 3.75v1.5a.75.75 0 1 1-1.5 0v-1.5A2.25 2.25 0 0 0 9 12H3.75a2.25 2.25 0 0 0-2.25 2.25v1.5a.75.75 0 1 1-1.5 0v-1.5a3.75 3.75 0 0 1 3.75-3.75zm8.775-4.263a.75.75 0 0 1 0 1.06l-3.712 3.713a.746.746 0 0 1-.374.203l-.104.015h-.105a.747.747 0 0 1-.478-.218l-2.121-2.122a.75.75 0 0 1 1.06-1.06l1.591 1.591 3.183-3.182a.75.75 0 0 1 1.06 0zM6.375 1.5a3.75 3.75 0 1 1 0 7.5 3.75 3.75 0 0 1 0-7.5zm0 1.5a2.25 2.25 0 1 0 0 4.5 2.25 2.25 0 0 0 0-4.5z" id="jk2i047wia"/>
    </defs>
    <g fill="none" fill-rule="evenodd">
        <mask id="dxqs8lzg5b" fill="#000000">
            <use xlink:href="#jk2i047wia"/>
        </mask>
        <use fill="#000000" fill-rule="nonzero" xlink:href="#jk2i047wia"/>
        <g mask="url(#dxqs8lzg5b)" fill="#000000">
            <path d="M0 0h18v18H0z"/>
        </g>
    </g>
</svg>
