<?xml version="1.0" encoding="UTF-8"?>
<svg width="16" height="16" viewBox="0 0 16 16" xmlns="http://www.w3.org/2000/svg" xmlns:xlink="http://www.w3.org/1999/xlink">
    <title>icon/ic-users</title>
    <defs>
        <path d="M8.667 9.333A3.333 3.333 0 0 1 12 12.667V14a.667.667 0 0 1-1.333 0v-1.333a2 2 0 0 0-2-2H3.333a2 2 0 0 0-2 2V14A.667.667 0 0 1 0 14v-1.333a3.333 3.333 0 0 1 3.333-3.334zm4.02.587a.667.667 0 0 1 .813-.479 3.333 3.333 0 0 1 2.5 3.226V14a.667.667 0 0 1-1.333 0v-1.333a2 2 0 0 0-1.5-1.935.667.667 0 0 1-.48-.812zM6 1.333A3.333 3.333 0 1 1 6 8a3.333 3.333 0 0 1 0-6.667zm4.02.588a.667.667 0 0 1 .812-.48 3.333 3.333 0 0 1 0 6.458.667.667 0 1 1-.33-1.292 2 2 0 0 0 0-3.875.667.667 0 0 1-.481-.81zM6 2.667a2 2 0 1 0 0 4 2 2 0 0 0 0-4z" id="fmv9vkfeka"/>
    </defs>
    <g fill="none" fill-rule="evenodd">
        <mask id="wss4u5cxdb" fill="#000000">
            <use xlink:href="#fmv9vkfeka"/>
        </mask>
        <use fill="#000000" fill-rule="nonzero" xlink:href="#fmv9vkfeka"/>
        <g mask="url(#wss4u5cxdb)" fill="#000000">
            <path d="M0 0h16v16H0z"/>
        </g>
    </g>
</svg>
