<?xml version="1.0" encoding="UTF-8"?>
<svg width="24" height="24" viewBox="0 0 24 24" xmlns="http://www.w3.org/2000/svg" xmlns:xlink="http://www.w3.org/1999/xlink">
    <title>icon/ic-warning</title>
    <defs>
        <path d="M12 1c6.075 0 11 4.925 11 11s-4.925 11-11 11S1 18.075 1 12 5.925 1 12 1zm0 2a9 9 0 1 0 0 18 9 9 0 0 0 0-18zm0 13a1 1 0 1 1 0 2 1 1 0 0 1 0-2zm0-10a1 1 0 0 1 1 1v7a1 1 0 0 1-2 0V7a1 1 0 0 1 1-1z" id="a"/>
    </defs>
    <g fill="none" fill-rule="evenodd">
        <mask id="b" fill="#000000">
            <use xlink:href="#a"/>
        </mask>
        <use fill="#000000" fill-rule="nonzero" xlink:href="#a"/>
        <g mask="url(#b)" fill="#000000">
            <path d="M0 0h24v24H0z"/>
        </g>
    </g>
</svg>
