<?xml version="1.0" encoding="UTF-8"?>
<svg width="16" height="16" viewBox="0 0 16 16" xmlns="http://www.w3.org/2000/svg">
    <title>icon/mark-q</title>
    <path d="M9.36 16.015c.81 0 1.485-.15 1.875-.33l-.405-1.635a3.92 3.92 0 0 1-1.215.18c-1.005 0-2.01-.345-2.52-1.185 2.205-.57 3.645-2.61 3.645-5.64 0-3.6-2.025-5.715-4.965-5.715S.81 3.79.81 7.405c0 3.165 1.575 5.265 3.945 5.715.765 1.68 2.34 2.895 4.605 2.895zm-3.585-4.62c-1.65 0-2.7-1.5-2.7-3.99 0-2.385 1.05-3.81 2.7-3.81 1.65 0 2.7 1.425 2.7 3.81 0 2.49-1.05 3.99-2.7 3.99zm8.205 1.815c.795 0 1.38-.63 1.38-1.44 0-.825-.585-1.44-1.38-1.44-.78 0-1.365.615-1.365 1.44 0 .81.585 1.44 1.365 1.44z" fill="#009C92" fill-rule="nonzero"/>
</svg>
