<?xml version="1.0" encoding="UTF-8"?>
<svg width="172" height="43" viewBox="0 0 172 43" xmlns="http://www.w3.org/2000/svg">
    <title>logo/logo-title</title>
    <g fill="none" fill-rule="evenodd">
        <path d="m115.112 7.645-2.515 2.548-2.516-2.548a3.627 3.627 0 0 1 0-5.097 3.535 3.535 0 0 1 5.031 0 3.627 3.627 0 0 1 0 5.097z" fill="#0BBFD0"/>
        <path d="m145.372 7.645-2.516 2.548-2.516-2.548a3.627 3.627 0 0 1 0-5.097 3.535 3.535 0 0 1 5.032 0 3.627 3.627 0 0 1 0 5.097z" fill="#FB2F82"/>
        <path d="M115.07 12.095v20.082c0 4.774-3.533 8.736-8.106 9.182l-.354.027-.353.013-.987.008V36.41h.846c2.04 0 3.754-1.554 4.045-3.6l.03-.269.013-.256.001-20.19h4.864zm-54.69 0c5.562 0 10.055 4.762 10.055 10.62 0 5.86-4.493 10.621-10.055 10.621-1.708 0-3.238-.434-4.544-1.274l-.35-.24-.276-.21v9.5h-4.884V12.251h4.883v1.568l.167-.13c1.08-.81 2.336-1.32 3.736-1.51l.471-.051.438-.026.36-.007zm67.514 0c5.561 0 10.054 4.733 10.054 10.557 0 5.824-4.493 10.557-10.054 10.557-5.562 0-10.055-4.733-10.055-10.557 0-5.824 4.493-10.557 10.055-10.557zm26.404 0v1.634l.102-.079c.526-.714 1.724-1.233 2.7-1.425l.422-.07.382-.04.386-.018.147-.002c4.69 0 8.575 3.612 9.012 8.277l.026.36.013.36.001 12.117h-4.913V21.142c-.05-2.277-1.89-4.097-4.139-4.097-2.066 0-3.8 1.54-4.094 3.564l-.03.267-.014.257-.001 12.076h-4.913V12.095h4.913zm-121.356 0 .001 12.068c.05 2.277 1.89 4.096 4.139 4.096 2.065 0 3.8-1.54 4.094-3.564l.03-.267.014-.256V12.095h4.914v21.114H41.22v-1.634l-.102.08c-.527.713-1.724 1.232-2.7 1.425l-.422.07-.383.04-.385.018-.147.001c-4.69 0-8.575-3.612-9.012-8.276l-.027-.361-.012-.36-.001-12.117h4.912zm112.582 0v21.114h-4.93V12.095h4.93zm-39.994-.003v4.956h-.846c-2.04 0-3.754 1.54-4.045 3.564l-.03.266-.013.257-.001 12.074h-4.864V12.1h4.864l-.001 1.52.11-.096a6.101 6.101 0 0 1 2.549-1.269l.405-.077.368-.047.371-.025 1.133-.013zM14.957 4.778c5.22 0 9.265 3.46 9.702 8.282l.026.355.012.357.008 1.005h-4.9l-.01-.948c-.05-2.41-2.016-4.099-4.838-4.099-2.672 0-4.84 1.578-4.84 3.368 0 1.4 1.35 2.542 3.798 3.102l.357.076.43.078.644.082c6.211.82 9.479 3.593 9.479 8.254 0 5.196-3.926 8.52-9.953 8.52-5.76 0-10.213-3.545-10.683-8.508l-.026-.349-.014-.358-.008-1.01h4.9l.01.94c.053 2.509 2.439 4.332 5.821 4.332 3.355 0 5.05-1.244 5.05-3.567 0-1.601-1.186-2.59-3.947-3.138l-.37-.069-.313-.052-.804-.104c-5.716-.766-9.273-3.855-9.273-8.23 0-4.643 4.362-8.32 9.742-8.32zm68.017 7.326c5.541 0 10.033 4.724 10.033 10.55 0 .85-.095 1.677-.276 2.468H78.35c.691 1.718 1.96 2.743 3.804 3.074l.842.074c1.38 0 2.543-.471 3.575-1.465l4.862 1.528c-1.782 2.93-4.904 4.873-8.458 4.873a9.607 9.607 0 0 1-1.891-.188l-.247-.052a9.59 9.59 0 0 1-.615-.163c-4.208-1.265-7.28-5.335-7.28-10.15 0-.389.02-.772.059-1.15l.032-.28a11.037 11.037 0 0 1 .2-1.106l.067-.267c1.168-4.466 5.057-7.746 9.675-7.746zm44.92 4.75c-2.942 0-5.348 2.587-5.348 5.798 0 3.212 2.406 5.798 5.348 5.798 2.942 0 5.348-2.586 5.348-5.798 0-3.211-2.406-5.797-5.348-5.797zm-67.514.156c-2.844 0-5.17 2.507-5.17 5.622 0 3.115 2.326 5.623 5.17 5.623s5.171-2.508 5.171-5.623-2.327-5.622-5.17-5.622zm22.893-.155-.326.01c-2.37.13-4.054 1.663-4.832 3.666l-.075.208h10.47l-.07-.195c-.765-1.98-2.504-3.687-4.735-3.671l-.323-.016-.11-.002z" fill="#282C34"/>
    </g>
</svg>
